# xmcd
#
# Track frame offsets:
#	150
#	16215
#	47887
#	62960
#	111225
#	133377
#	146130
#	165502
#	180682
#	206357
#	223820
#	238202
#	252270
#	262492
#	274535
#
# Disc length: 3822 seconds
#
# Revision: 1
# Processed by: cddbd v1.5.2PL0 Copyright (c) Steve Scherf et al.
# Submitted via: audiograbber 1.83.01
#
DISCID=f40eec0f
DTITLE=Various Artist - Total Guitar  Collection TACD009
DYEAR=1900
DGENRE=
TTITLE0=Black Night - Deep Purple backing
TTITLE1=Purple Rain - Prince
TTITLE2=Runnin' With The Devil - Van Hallen
TTITLE3=Shine On You Crazy Diamond - Pink Floyd
TTITLE4=Life In The Fast Lane - The Eagles
TTITLE5=Communication Breakdown - Led Zeppelin
TTITLE6=Every Breath You Take - Police
TTITLE7=Get Back - The Beatles
TTITLE8=Where The Streets Have No Name - U2
TTITLE9=Pride (In The Name Of Love) - U2
TTITLE10=Ziggy Stardust - David Bowie
TTITLE11=Pinball Wizard - The Who
TTITLE12=Wonderful Land - The Shadows
TTITLE13=Johnny B Goode - Chuck Berry
TTITLE14=Crazy Little Thing Called Love - Queen
EXTD=
EXTT0=
EXTT1=
EXTT2=
EXTT3=
EXTT4=
EXTT5=
EXTT6=
EXTT7=
EXTT8=
EXTT9=
EXTT10=
EXTT11=
EXTT12=
EXTT13=
EXTT14=
PLAYORDER=
